<svg width="160" height="160" viewBox="0 0 160 160" fill="none" xmlns="http://www.w3.org/2000/svg">
    <path fill-rule="evenodd" clip-rule="evenodd"
        d="M80 160C124.183 160 160 124.183 160 80C160 35.8172 124.183 0 80 0C35.8172 0 0 35.8172 0 80C0 124.183 35.8172 160 80 160ZM80 91C86.0751 91 91 86.0751 91 80C91 73.9249 86.0751 69 80 69C73.9249 69 69 73.9249 69 80C69 86.0751 73.9249 91 80 91Z"
        fill="url(#paint0_radial_201_2)" />
    <path fill-rule="evenodd" clip-rule="evenodd"
        d="M80 108C95.464 108 108 95.464 108 80C108 64.536 95.464 52 80 52C64.536 52 52 64.536 52 80C52 95.464 64.536 108 80 108ZM80 91C86.0751 91 91 86.0751 91 80C91 73.9249 86.0751 69 80 69C73.9249 69 69 73.9249 69 80C69 86.0751 73.9249 91 80 91Z"
        fill="#9C2490" />
    <path fill-rule="evenodd" clip-rule="evenodd"
        d="M80.5 68V52H79.5V68H80.5ZM71.8682 71.1612L60.5545 59.8475L59.8474 60.5546L71.1611 71.8683L71.8682 71.1612ZM80.5 92V108H79.5V92H80.5ZM100.153 99.4454L88.8388 88.1317L88.1317 88.8388L99.4454 100.153L100.153 99.4454ZM68 80.5H52V79.5H68V80.5ZM60.5546 100.153L71.8683 88.8388L71.1612 88.1317L59.8474 99.4454L60.5546 100.153ZM108 80.5H92V79.5H108V80.5ZM88.8389 71.8683L100.153 60.5546L99.4455 59.8475L88.1317 71.1612L88.8389 71.8683Z"
        fill="url(#paint1_radial_201_2)" fill-opacity="0.3" />
    <path fill-rule="evenodd" clip-rule="evenodd"
        d="M80 63C81.1046 63 82 62.1046 82 61C82 59.8954 81.1046 59 80 59C78.8954 59 78 59.8954 78 61C78 62.1046 78.8954 63 80 63ZM80 101C81.1046 101 82 100.105 82 99C82 97.8954 81.1046 97 80 97C78.8954 97 78 97.8954 78 99C78 100.105 78.8954 101 80 101ZM99 82C97.8954 82 97 81.1046 97 80C97 78.8954 97.8954 78 99 78C100.105 78 101 78.8954 101 80C101 81.1046 100.105 82 99 82ZM59 80C59 81.1046 59.8954 82 61 82C62.1046 82 63 81.1046 63 80C63 78.8954 62.1046 78 61 78C59.8954 78 59 78.8954 59 80ZM67.9792 65.1508C68.7603 65.9318 68.7603 67.1982 67.9792 67.9792C67.1982 68.7602 65.9318 68.7602 65.1508 67.9792C64.3698 67.1982 64.3698 65.9318 65.1508 65.1508C65.9318 64.3697 67.1982 64.3697 67.9792 65.1508ZM94.8492 94.8492C95.6303 94.0682 95.6303 92.8018 94.8492 92.0208C94.0682 91.2398 92.8019 91.2398 92.0208 92.0208C91.2398 92.8018 91.2398 94.0682 92.0208 94.8492C92.8019 95.6303 94.0682 95.6303 94.8492 94.8492ZM94.8492 67.9792C94.0682 68.7602 92.8018 68.7602 92.0208 67.9792C91.2397 67.1981 91.2397 65.9318 92.0208 65.1508C92.8018 64.3697 94.0682 64.3697 94.8492 65.1508C95.6302 65.9318 95.6302 67.1981 94.8492 67.9792ZM65.1508 94.8492C65.9318 95.6303 67.1981 95.6303 67.9791 94.8492C68.7602 94.0682 68.7602 92.8018 67.9791 92.0208C67.1981 91.2398 65.9318 91.2398 65.1508 92.0208C64.3697 92.8018 64.3697 94.0682 65.1508 94.8492Z"
        fill="black" fill-opacity="0.06" />
    <circle cx="80" cy="80" r="19" stroke="black" stroke-opacity="0.04" />
    <defs>
        <radialGradient id="paint0_radial_201_2" cx="0" cy="0" r="1" gradientUnits="userSpaceOnUse"
            gradientTransform="translate(80 80) rotate(90) scale(80)">
            <stop stop-color="#1A1A1A" />
            <stop offset="0.0001" stop-color="#424242" />
            <stop offset="1" stop-color="#202020" />
        </radialGradient>
        <radialGradient id="paint1_radial_201_2" cx="0" cy="0" r="1" gradientUnits="userSpaceOnUse"
            gradientTransform="translate(80 80) rotate(90) scale(28)">
            <stop offset="0.33044" stop-opacity="0" />
            <stop offset="0.708333" />
            <stop offset="1" stop-opacity="0" />
        </radialGradient>
    </defs>
</svg>